<svg width="100" height="26" viewBox="0 0 100 26" fill="none" xmlns="http://www.w3.org/2000/svg">
<path d="M36.3921 25.7115C37.8632 25.6768 39.1013 25.3283 40.1383 24.6311C41.1409 23.969 41.911 23.0281 42.4123 21.8794C42.9474 20.7296 43.2152 19.4753 43.2152 18.0812C43.2152 16.9327 43.0809 15.9921 42.8135 15.2599C42.5461 14.4933 42.1779 13.8666 41.7439 13.344C41.1409 12.6121 40.3717 12.0201 39.4692 11.602C38.5662 11.1839 37.5301 10.8009 36.3591 10.4525C35.8238 10.2777 35.188 10.0344 34.4527 9.65103C33.7167 9.30253 33.0818 8.88371 32.546 8.36167C32.1448 7.90868 31.8443 7.38699 31.7108 6.86298C31.5765 6.34075 31.5095 5.81853 31.5095 5.33048C31.5095 4.70359 31.6435 4.11178 31.9104 3.48489C32.1448 2.85711 32.5796 2.33453 33.1821 1.91643C33.7837 1.49833 34.5531 1.25484 35.5563 1.25484C36.3251 1.25484 37.0276 1.35932 37.6299 1.63806C38.2316 1.88137 38.7668 2.23005 39.2018 2.75245C39.8709 3.51942 40.3717 4.2159 40.6393 4.8782C40.9405 5.5398 41.1749 6.09726 41.2749 6.62038C41.3087 6.72468 41.3757 6.75903 41.4758 6.72468L41.8765 6.62038C41.9443 6.62038 41.9775 6.58496 42.0108 6.51483C42.045 6.48048 42.045 6.41089 42.045 6.34075C42.045 6.06256 41.9775 5.5398 41.911 4.84314C41.8432 4.11178 41.7767 3.3797 41.6769 2.61345C41.6096 1.84684 41.5763 1.25484 41.5763 0.800958C41.5763 0.62742 41.5421 0.487695 41.5093 0.383751C41.4758 0.27945 41.409 0.208962 41.3087 0.208962C41.2416 0.208962 41.1409 0.244027 41.1081 0.27945C41.041 0.314157 40.9405 0.348686 40.8737 0.418101L40.4395 0.836382C40.3717 0.941757 40.2716 0.975749 40.1711 0.975749C40.0708 1.01099 39.9374 0.941757 39.8036 0.871447C39.5027 0.697372 39.0343 0.522761 38.3323 0.348686C37.6299 0.139367 36.8277 0.0348865 35.8577 0C34.9546 0 34.0851 0.139367 33.2819 0.383751C32.4794 0.662486 31.7776 1.08023 31.1753 1.67205C30.6402 2.19517 30.172 2.85711 29.7372 3.6239C29.3365 4.42522 29.1349 5.26106 29.1019 6.13179C29.1019 7.28215 29.2359 8.25736 29.5364 9.09267C29.8038 9.92995 30.2055 10.6611 30.7738 11.2181C31.5432 11.9852 32.4131 12.6121 33.3492 13.0653C34.3196 13.5181 35.0877 13.8666 35.6566 14.0403C37.0276 14.4933 38.2316 15.1554 39.2353 15.9921C40.2384 16.8623 40.7739 18.1862 40.8074 19.9275C40.7739 20.9738 40.539 21.8091 40.0708 22.4714C39.6035 23.1328 39.0343 23.5868 38.3323 23.9003C37.6299 24.2134 36.9607 24.3529 36.259 24.3529C35.3223 24.3529 34.4188 24.1085 33.6164 23.6904C32.7804 23.2382 32.0783 22.6113 31.5765 21.7753C31.0417 20.9038 30.707 20.1365 30.5737 19.51C30.4394 18.8825 30.3724 18.2907 30.3724 17.7332C30.3724 17.6286 30.3388 17.5599 30.3055 17.5248C30.3055 17.4898 30.239 17.4543 30.172 17.4543L29.6707 17.4198C29.6034 17.4198 29.5699 17.4198 29.5026 17.4543C29.4694 17.4543 29.4694 17.5248 29.4363 17.6286C29.4024 18.0123 29.3365 18.6392 29.269 19.51C29.2019 20.4163 29.1349 21.2876 29.0679 22.1227C28.9678 22.994 28.9008 23.5868 28.8671 23.9357C28.8336 24.1441 28.8671 24.2822 28.9345 24.3529C28.9678 24.457 29.0679 24.4923 29.1684 24.4923C29.269 24.4923 29.4025 24.4923 29.4694 24.4218C29.5699 24.3876 29.6707 24.2486 29.77 24.0744C29.8706 23.9001 29.9716 23.7602 30.0382 23.6554C30.1049 23.552 30.2055 23.4815 30.3055 23.4815C30.3724 23.4815 30.4731 23.516 30.6067 23.5867C30.707 23.6208 30.8746 23.7602 31.0747 23.9001C31.7441 24.4569 32.4794 24.8753 33.3492 25.2236C34.2193 25.5378 35.222 25.7115 36.3921 25.7115ZM56.9254 15.9217C57.1928 15.9217 57.4267 15.8873 57.5943 15.8172C57.7616 15.7483 57.8617 15.6084 57.8617 15.364C57.8617 14.8765 57.7276 14.2151 57.4269 13.4483C57.1591 12.6464 56.6582 11.9147 55.9216 11.2538C55.22 10.6262 54.2162 10.2777 52.9455 10.2432C52.1101 10.2432 51.2736 10.3475 50.4705 10.5915C49.6683 10.8352 48.8984 11.3576 48.1636 12.09C47.294 13.0304 46.7252 14.0403 46.4577 15.0509C46.1561 16.0616 46.0232 16.9327 46.0561 17.6286C46.0561 18.8142 46.1561 19.823 46.3574 20.6253C46.5581 21.4606 46.9595 22.2978 47.5273 23.133C48.1636 24.0747 48.9658 24.7012 49.9021 25.085C50.8386 25.433 51.8091 25.6074 52.7789 25.6074C53.7814 25.5718 54.6182 25.363 55.3531 24.9453C56.0564 24.4926 56.6582 24.0046 57.1258 23.413C57.5607 22.8202 57.8954 22.298 58.0962 21.8092C58.1626 21.6357 58.1959 21.4954 58.1959 21.4266C58.1959 21.3572 58.1626 21.2877 58.0962 21.2877L57.6617 21.0437C57.5942 21.0437 57.5607 21.0437 57.4937 21.079C57.4265 21.1126 57.3939 21.1477 57.3604 21.2171C57.0594 21.8092 56.5902 22.3671 55.889 22.8202C55.186 23.3088 54.3507 23.5523 53.313 23.587C51.9417 23.5523 50.8049 22.9943 49.9354 21.8796C49.0662 20.7652 48.5972 19.3359 48.5651 17.5942C48.5651 16.7924 48.5974 16.2362 48.6644 15.9218H56.9254V15.9217ZM48.7983 14.8765C49.1327 13.5869 49.6012 12.6824 50.2368 12.1244C50.8722 11.5669 51.5747 11.288 52.3097 11.288C53.0126 11.3227 53.5809 11.5326 53.9486 11.9147C54.317 12.2983 54.5841 12.7518 54.7179 13.2386C54.8183 13.727 54.8853 14.1108 54.8853 14.389C54.8853 14.5632 54.8183 14.6674 54.6835 14.7377C54.5174 14.8421 54.2834 14.8765 53.9826 14.8765H48.7983ZM72.81 12.9252C72.7436 12.6464 72.7765 12.4387 72.8772 12.2634C72.9768 12.1244 73.1114 12.0201 73.2778 12.0201H73.981C74.1472 12.0201 74.2145 11.9147 74.2145 11.7414V11.0087C74.2145 10.9397 74.1812 10.8699 74.147 10.8352C74.1147 10.8009 74.0139 10.7653 73.9129 10.7653C73.7804 10.7653 73.513 10.8009 73.1114 10.8009C72.7097 10.8352 72.1416 10.8699 71.3724 10.8699C70.535 10.8699 69.8669 10.8352 69.3316 10.8009C68.8301 10.8009 68.4954 10.7653 68.3613 10.7653C68.2613 10.7653 68.195 10.8009 68.1275 10.8352C68.0945 10.8699 68.0609 10.9397 68.0609 11.0445V11.7757C68.0609 11.9496 68.1275 12.0201 68.296 12.0201H68.7968C69.0309 12.0201 69.2318 12.0544 69.3658 12.09C69.499 12.1589 69.6327 12.2294 69.6993 12.3679C69.8004 12.5078 69.8671 12.6464 69.8999 12.8207C69.9334 12.9953 69.9674 13.2041 70.001 13.4828L66.5898 21.984H66.4561L63.8134 12.7518C63.7136 12.4387 63.7136 12.1943 63.8134 12.0544C63.8809 11.8804 64.0147 11.8113 64.2154 11.8113H64.5162C64.6166 11.8113 64.7162 11.7757 64.7501 11.7414C64.7836 11.6712 64.7836 11.602 64.7836 11.5326V10.835C64.7836 10.7304 64.7501 10.661 64.7161 10.6261C64.6828 10.5914 64.6165 10.5572 64.516 10.5572C64.2824 10.5572 63.9144 10.5914 63.479 10.5914C63.0443 10.6261 62.4431 10.661 61.7063 10.661C60.7696 10.661 60.1007 10.6261 59.6331 10.5914C59.1979 10.5914 58.8633 10.5572 58.6632 10.5572C58.5963 10.5572 58.5298 10.5914 58.4965 10.6261C58.463 10.6958 58.463 10.7651 58.463 10.835V11.4973C58.463 11.6018 58.463 11.6711 58.4965 11.7412C58.5296 11.7755 58.5963 11.8111 58.6969 11.8111H59.4328C59.8335 11.8111 60.1349 11.8802 60.3353 12.0199C60.5692 12.1942 60.737 12.4024 60.8373 12.7516L65.2184 25.014C65.2847 25.2238 65.3525 25.3975 65.4528 25.5026C65.553 25.641 65.6527 25.7113 65.787 25.7113C65.9201 25.7113 66.0544 25.6766 66.1886 25.5714C66.2884 25.5026 66.3892 25.3627 66.4902 25.1539L70.603 15.1196H70.7701L74.0474 25.049C74.1151 25.2584 74.2147 25.4328 74.3152 25.5376C74.4161 25.641 74.5158 25.7113 74.6495 25.7113C74.7828 25.7113 74.9169 25.6766 75.0179 25.641C75.1175 25.5713 75.2183 25.4326 75.2848 25.2582C75.4195 24.9106 75.7195 24.1438 76.2222 22.8548C76.6898 21.5997 77.2244 20.2061 77.8267 18.6736C78.4282 17.1064 78.9978 15.7479 79.4658 14.5274C79.9343 13.3436 80.2351 12.6117 80.3685 12.4022C80.4693 12.2291 80.6362 12.0897 80.8373 11.9849C81.0378 11.88 81.2382 11.811 81.4396 11.811H82.2752C82.4419 11.811 82.5089 11.7054 82.5089 11.5322V10.8005C82.5089 10.7302 82.4754 10.6608 82.4417 10.6259C82.4083 10.5912 82.3426 10.557 82.275 10.557C82.0739 10.557 81.806 10.5912 81.4395 10.5912C81.0707 10.6259 80.5365 10.6608 79.833 10.6608C79.1306 10.6608 78.5625 10.6259 78.0952 10.5912C77.6595 10.5912 77.3594 10.557 77.2584 10.557C77.1918 10.557 77.1252 10.5912 77.0908 10.6259C77.0579 10.6608 77.0247 10.7302 77.0247 10.8005V11.5322C77.0247 11.6016 77.0247 11.6709 77.0577 11.741C77.0907 11.7754 77.1585 11.811 77.2243 11.811H77.6929C78.0278 11.811 78.2614 11.9849 78.3617 12.2979C78.462 12.6461 78.3957 13.1003 78.1946 13.7267L75.4854 21.391H75.3526L72.81 12.9252ZM92.9753 18.987V13.6571C92.9753 13.1697 92.9413 12.7518 92.875 12.3339C92.7738 11.9147 92.5734 11.5326 92.2392 11.1839C92.0051 10.9397 91.7035 10.7305 91.3027 10.5574C90.9347 10.3475 90.3325 10.2432 89.5636 10.2432C88.8281 10.2432 88.1258 10.3475 87.4899 10.5212C86.8548 10.7305 86.1862 11.0445 85.4828 11.4626C84.781 11.8804 84.2459 12.4026 83.8117 12.9953C83.41 13.5869 83.1761 14.1793 83.1761 14.7377C83.1761 15.1198 83.2436 15.4331 83.3764 15.6084C83.5105 15.7818 83.7107 15.8521 83.9788 15.8521C84.6474 15.8521 85.1154 15.6775 85.3837 15.3297C85.6509 14.9819 85.7507 14.4933 85.7507 13.8666C85.7174 13.5528 85.6847 13.2739 85.6509 12.9953C85.6183 12.7166 85.7174 12.4733 85.9188 12.2634C86.1866 12.0201 86.5204 11.8462 86.9225 11.7414C87.3561 11.602 87.724 11.5326 88.0927 11.5326C88.5943 11.5326 88.9957 11.602 89.3304 11.7414C89.6641 11.8804 89.9329 12.0544 90.0986 12.2983C90.2664 12.5421 90.3999 12.8565 90.4333 13.2041C90.5005 13.5869 90.5342 13.9355 90.567 14.2491V16.4795C90.2662 16.7237 89.7644 17.0368 89.0292 17.4198C88.3263 17.7687 87.5565 18.1517 86.7882 18.5008C85.4829 19.0924 84.6139 19.7543 84.1128 20.4514C83.6441 21.1827 83.4102 21.9148 83.4433 22.7152C83.477 23.7958 83.7111 24.5622 84.147 24.9798C84.5809 25.3975 85.016 25.6072 85.4503 25.6072C85.818 25.6072 86.1524 25.6072 86.4871 25.5716C86.7883 25.5716 87.1225 25.5027 87.4243 25.3975C88.1588 25.1193 88.8284 24.8412 89.3962 24.457C89.9329 24.1085 90.3999 23.7255 90.7341 23.2729H90.8017C90.9681 24.0044 91.2357 24.5622 91.6376 24.9798C92.0724 25.3975 92.5737 25.6072 93.1752 25.6072C94.0114 25.5716 94.6133 25.3628 95.0162 24.9451C95.4169 24.5622 95.651 24.2134 95.785 23.9003C95.884 23.7255 95.9182 23.5868 95.9182 23.4816C95.9182 23.4126 95.884 23.3086 95.8179 23.2729L95.4842 22.994C95.4169 22.9598 95.3499 22.9245 95.3159 22.9598C95.283 22.994 95.2158 23.0641 95.1495 23.1328C95.0489 23.2729 94.9149 23.3768 94.7147 23.4816C94.4806 23.5868 94.2465 23.6555 93.9781 23.6555C93.6774 23.6904 93.4436 23.4816 93.2432 23.0984C93.0751 22.7152 92.9758 22.0189 92.9758 21.0435V18.987H92.9753ZM90.5338 21.8089C90.4665 22.2975 90.1319 22.785 89.53 23.238C88.8952 23.6903 88.3259 23.9355 87.7911 23.9688C87.2884 23.9688 86.8546 23.8302 86.5539 23.4815C86.2194 23.168 86.0519 22.715 86.0519 22.0531C86.0847 21.1122 86.3854 20.3465 86.9539 19.7896C87.5239 19.2658 88.1257 18.8142 88.8279 18.4655C89.53 18.1517 90.0981 17.8374 90.5338 17.5248V21.8089Z" fill="white"/>
<path d="M0 12.8201C0 5.73967 5.75291 0 12.8499 0C19.5292 0 25.0185 5.0854 25.6401 11.5864H20.7528V14.0533H25.6401C25.0185 20.5557 19.5292 25.6401 12.8499 25.6401C5.75291 25.6401 0 19.9008 0 12.8201Z" fill="white"/>
<path d="M16.4851 10.4369C16.757 10.3945 16.9896 10.3224 17.1486 10.2282C17.3081 10.1336 17.3885 9.98102 17.3509 9.74429C17.2755 9.26985 17.0371 8.64771 16.6131 7.94975C16.2173 7.213 15.5945 6.58156 14.7451 6.0561C13.9349 5.55835 12.862 5.37982 11.5655 5.55003C10.7162 5.68503 9.88329 5.92029 9.10513 6.2863C8.32745 6.65297 7.6269 7.28473 6.99254 8.11491C6.25392 9.16926 5.83281 10.243 5.71711 11.2701C5.5671 12.3004 5.56563 13.1697 5.70731 13.8422C5.89049 14.995 6.14852 15.9613 6.4755 16.7088C6.80854 17.4906 7.346 18.2393 8.05226 18.962C8.84318 19.7738 9.75567 20.2557 10.7652 20.4786C11.7712 20.6667 12.7827 20.681 13.7682 20.5257C14.7819 20.33 15.5991 19.993 16.2823 19.4679C16.9257 18.915 17.462 18.3431 17.8459 17.6928C18.196 17.0463 18.4554 16.4847 18.5842 15.9775C18.6248 15.7972 18.6374 15.6563 18.626 15.5885C18.6154 15.52 18.5709 15.4585 18.5034 15.4685L18.0236 15.3018C17.9553 15.312 17.922 15.3177 17.8588 15.3622C17.7968 15.407 17.7681 15.4458 17.745 15.5193C17.5308 16.1443 17.1411 16.762 16.4974 17.3148C15.8594 17.9018 15.0476 18.2732 14 18.4734C12.6016 18.6599 11.3602 18.2994 10.3046 17.355C9.24942 16.4097 8.55279 15.095 8.24999 13.4059C8.1258 12.6263 8.07449 12.0781 8.09426 11.7628L16.4851 10.4369ZM8.06812 10.7241C8.20865 9.41642 8.5443 8.46055 9.10431 7.81541C9.66432 7.17207 10.3346 6.78698 11.0816 6.66943C11.8003 6.59052 12.4098 6.70237 12.8427 7.01654C13.2759 7.33006 13.6177 7.72819 13.8285 8.18143C14.0062 8.63939 14.1333 9.00182 14.1764 9.27328C14.2031 9.44251 14.1508 9.555 14.0258 9.64418C13.8722 9.77249 13.64 9.84407 13.3342 9.89249L8.06812 10.7241Z" fill="#60BB47"/>
<path d="M96.6505 10.7465H95.99V10.4987H97.5982V10.7465H96.9343V12.7562H96.6505V10.7465Z" fill="white"/>
<path d="M99.6712 11.7642C99.655 11.4534 99.6357 11.0679 99.6357 10.7896H99.6292C99.552 11.0506 99.465 11.3392 99.3555 11.6471L98.9719 12.7424H98.7592L98.4048 11.6678C98.3016 11.3496 98.2176 11.0578 98.1565 10.7896H98.1501C98.1438 11.0715 98.1275 11.4494 98.1084 11.7886L98.0503 12.7561H97.7827L97.9344 10.4986H98.2923L98.6632 11.5904C98.7536 11.8687 98.8241 12.12 98.8824 12.3544H98.8878C98.9455 12.1263 99.0239 11.8751 99.1205 11.5904L99.5069 10.4986H99.8654L99.9998 12.7561H99.7231L99.6712 11.7642Z" fill="white"/>
</svg>
